<svg xmlns="http://www.w3.org/2000/svg" width="32" height="32" viewBox="0 0 32 32" fill="none">
  <rect width="32" height="32" rx="6" fill="#111827"/>
  <path d="M11 8h6a2 2 0 0 1 2 2v2h1.5a2.5 2.5 0 0 1 2.5 2.5V16h-2v-1.5a.5.5 0 0 0-.5-.5H19v10a2 2 0 0 1-2 2h-6a2 2 0 0 1-2-2V10a2 2 0 0 1 2-2Z" fill="#DC2626"/>
  <path d="M14 6h4v2h-4z" fill="#FACC15"/>
  <circle cx="12.5" cy="23.5" r="1.5" fill="#F97316"/>
  <path d="M19 12l4-3" stroke="#FACC15" stroke-width="2" stroke-linecap="round"/>
</svg>
